<svg id="Capa_1" enable-background="new 0 0 510 510" height="512" viewBox="0 0 510 510" width="512" xmlns="http://www.w3.org/2000/svg" xmlns:xlink="http://www.w3.org/1999/xlink"><linearGradient id="SVGID_1_" gradientUnits="userSpaceOnUse" x1="-11.906" x2="500.186" y1="255" y2="255"><stop offset="0" stop-color="#01d0fb"/><stop offset=".6075" stop-color="#26a6fe"/><stop offset="1" stop-color="#0182fc"/></linearGradient><linearGradient id="SVGID_2_" gradientUnits="userSpaceOnUse" x1="113.07" x2="505.544" y1="255" y2="255"><stop offset="0" stop-color="#01bffa"/><stop offset=".2539" stop-color="#1f9efc"/><stop offset=".5724" stop-color="#407afd"/><stop offset=".8326" stop-color="#5464ff"/><stop offset="1" stop-color="#5b5cff"/></linearGradient><linearGradient id="lg1"><stop offset="0" stop-color="#b0e7c9"/><stop offset=".593" stop-color="#46cc8d"/><stop offset="1" stop-color="#0ab69f"/></linearGradient><linearGradient id="SVGID_3_" gradientUnits="userSpaceOnUse" x1="-1.636" x2="294.008" xlink:href="#lg1" y1="350.764" y2="350.764"/><linearGradient id="lg2"><stop offset="0" stop-color="#46cc8d"/><stop offset=".5484" stop-color="#0ab69f"/><stop offset="1" stop-color="#01998d"/></linearGradient><linearGradient id="SVGID_4_" gradientUnits="userSpaceOnUse" x1="108" x2="281.666" xlink:href="#lg2" y1="425.588" y2="425.588"/><linearGradient id="SVGID_5_" gradientUnits="userSpaceOnUse" x1="181" x2="476.042" xlink:href="#lg1" y1="116.5" y2="116.5"/><linearGradient id="SVGID_6_" gradientUnits="userSpaceOnUse" x1="224.982" x2="477.448" xlink:href="#lg2" y1="116.5" y2="116.5"/><linearGradient id="SVGID_7_" gradientUnits="userSpaceOnUse" x1="302.051" x2="389.744" xlink:href="#lg2" y1="227.257" y2="227.257"/><linearGradient id="SVGID_8_" gradientUnits="userSpaceOnUse" x1="34" x2="120.585" xlink:href="#lg1" y1="170.111" y2="170.111"/><linearGradient id="SVGID_9_" gradientUnits="userSpaceOnUse" x1="339" x2="477.177" xlink:href="#lg1" y1="386.892" y2="386.892"/><linearGradient id="SVGID_10_" gradientUnits="userSpaceOnUse" x1="379.577" x2="483.018" xlink:href="#lg2" y1="386.892" y2="386.892"/><linearGradient id="SVGID_11_" gradientUnits="userSpaceOnUse" x1="-6.001" x2="489.26" y1="255.003" y2="255.003"><stop offset="0" stop-color="#fff9df"/><stop offset=".593" stop-color="#ffe177"/><stop offset="1" stop-color="#feb137"/></linearGradient><g><g><g><g><path d="m506 255c0 140.833-110.167 255-251 255-42.085 0-81.789-10.195-116.777-28.25-37.037-19.113-64.788-52.033-88.486-85.991-17.782-25.482-35.029-49.364-42.57-80.475-4.684-19.328-7.167-39.516-7.167-60.284 0-140.833 114.167-255 255-255 109.245.713 251 114.167 251 255z" fill="url(#SVGID_1_)"/></g></g><path d="m255 0c-6.735 0-13.407.266-20.01.778 101.085 7.847 185.627 74.637 219.318 166.036-.035.065-.073.12-.108.187-26.075 50.09-70.47 107.693-124.988 162.211s-112.132 98.913-162.21 124.988c-18.687 9.725-33.433 15.388-44.807 18.521 21.73 13.283 45.605 23.395 70.981 29.715 54.719-28.637 116.767-76.336 174.846-134.416 39.723-39.723 74.583-81.301 101.817-121.122.084 2.691.142 5.389.142 8.101 0 134.098-103.511 244.016-234.99 254.222 6.602.513 13.274.779 20.009.779 65.459 0 125.157-24.665 170.308-65.207 16.569-14.878 29.725-33.322 41.942-52.043 13.863-21.243 26.099-43.252 33.164-68.249 6.245-22.094 9.586-45.407 9.586-69.501 0-63.976-23.56-122.449-62.476-167.217-20.454-23.529-48.15-40.273-75.898-55.039-35.675-18.986-73.394-32.744-116.626-32.744z" fill="url(#SVGID_2_)"/><path d="m157.4 258.715-16.754-16.754c-30.961-30.961-81.158-30.961-112.119 0-19.551 19.551-27.661 47.914-20.992 74.747 16.203 65.196 57.493 120.475 113.033 155 28.872 17.948 66.275 13.782 90.314-10.257 12.453-12.454 29.345-19.451 46.958-19.451 21.829 0 39.525-17.696 39.525-39.525 0-35.381-28.682-64.064-64.064-64.064h-15.543c-25.783 0-46.685-20.902-46.685-46.685 0-12.382-4.918-24.256-13.673-33.011z" fill="url(#SVGID_3_)"/><path d="m210.881 461.451c12.454-12.454 29.346-19.451 46.959-19.451 21.829 0 39.525-17.696 39.525-39.525 0-12.527-3.609-24.205-9.824-34.077-41.43 36.559-83.091 66.303-120.539 85.802-18.657 9.709-33.384 15.369-44.751 18.505 28.631 16.768 65.054 12.322 88.63-11.254z" fill="url(#SVGID_4_)"/><path d="m415.712 233c53.551 0 87.389-57.854 60.819-104.348-43.92-76.854-126.672-128.652-221.531-128.652-.8 0-1.598.004-2.396.011-29.119.27-52.604 23.906-52.604 53.027 0 14.062 5.586 27.548 15.529 37.491l47.344 47.344c12.921 12.921 33.87 12.921 46.791 0 12.921-12.921 33.87-12.921 46.791 0 19.103 19.103 29.835 45.013 29.835 72.029 0 12.756 10.341 23.097 23.097 23.097h6.325z" fill="url(#SVGID_5_)"/><path d="m241.24 1.35c98.308 10.059 180.074 75.956 213.067 165.465-.035.065-.073.12-.108.187-10.903 20.944-25.018 43.203-41.727 65.998h3.239c53.551 0 87.389-57.854 60.819-104.348-43.919-76.854-126.671-128.652-221.53-128.652-.97 0-1.935.018-2.902.029-3.727.069-7.357.524-10.858 1.321z" fill="url(#SVGID_6_)"/><circle cx="328.582" cy="227.257" fill="url(#SVGID_7_)" r="38.993"/><circle cx="75" cy="170.111" fill="url(#SVGID_8_)" r="32.139"/><path d="m500.41 324.5h-27.28c-29.857 0-58.491 11.861-79.603 32.973l-27.26 27.26c-10.8 10.8-3.15 29.267 12.124 29.267 9.725 0 17.609 7.884 17.609 17.609 0 15.187 17.998 23.319 29.299 13.173 35.373-31.758 61.82-73.256 75.111-120.282z" fill="url(#SVGID_9_)"/><path d="m473.13 324.5c-4.356 0-8.685.26-12.969.757-11.939 41.739-34.243 79.095-63.957 109.113 2.018 13.371 18.499 19.925 29.094 10.413 35.373-31.758 61.82-73.256 75.112-120.282h-27.28z" fill="url(#SVGID_10_)"/></g><path d="m485.729 24.271c-17.477-17.477-52.517-30.515-121.39.305 21.039 9.989 40.492 22.783 57.871 37.906 5.83-1.207 10.525-1.659 14.209-1.659 3.098 0 5.476.317 7.196.756 1.732.439 2.805 1 3.305 1.5 1.585 1.597 3.842 9.062.598 24.709-2.512 12.123-8.33 29.174-20.319 52.212-26.076 50.09-70.47 107.693-124.987 162.211-54.517 54.517-112.133 98.912-162.211 124.988-23.039 11.989-40.089 17.807-52.212 20.319-15.648 3.244-23.112.988-24.71-.598-1.586-1.598-3.842-9.062-.598-24.709-15.123-17.38-27.917-36.833-37.906-57.872-30.82 68.873-17.782 103.9-.305 121.39 9.842 9.83 25.234 18.27 49.09 18.27 18.526 0 42.175-5.098 72.287-18.575 6.281-2.805 12.843-5.976 19.697-9.549 54.92-28.588 117.304-76.483 175.675-134.854 58.371-58.372 106.266-120.755 134.854-175.675 3.561-6.854 6.745-13.404 9.55-19.685 13.477-30.113 18.575-53.774 18.575-72.312.001-23.844-8.426-39.236-18.269-49.078z" fill="url(#SVGID_11_)"/></g></svg>